<svg aria-hidden="true" style="position: absolute; width: 0; height: 0; overflow: hidden;" version="1.1" xmlns="http://www.w3.org/2000/svg" xmlns:xlink="http://www.w3.org/1999/xlink">
    <defs>
        <symbol id="astronauta" viewBox="0 0 32 32">
            <path d="M31.974 4.524c-0.063-0.193-0.229-0.333-0.43-0.363l-1.91-0.278-0.855-1.731c-0.179-0.365-0.777-0.365-0.956 0l-0.855 1.731-1.91 0.278c-0.201 0.029-0.367 0.17-0.431 0.363-0.062 0.193-0.011 0.405 0.135 0.547l1.383 1.348-0.326 1.903c-0.034 0.2 0.048 0.402 0.212 0.522 0.166 0.121 0.382 0.135 0.562 0.040l1.709-0.899 1.709 0.899c0.078 0.041 0.164 0.061 0.249 0.061 0.11 0 0.221-0.034 0.314-0.102 0.164-0.119 0.246-0.322 0.212-0.522l-0.326-1.903 1.383-1.348c0.145-0.142 0.197-0.354 0.135-0.547zM29.511 5.851c-0.125 0.122-0.183 0.299-0.153 0.472l0.191 1.114-1-0.526c-0.078-0.041-0.163-0.061-0.249-0.061s-0.17 0.020-0.249 0.061l-1.001 0.526 0.191-1.114c0.030-0.173-0.028-0.349-0.153-0.472l-0.81-0.789 1.119-0.163c0.174-0.025 0.324-0.134 0.402-0.292l0.5-1.013 0.5 1.013c0.078 0.157 0.228 0.267 0.402 0.292l1.119 0.163-0.809 0.789z"></path>
            <path d="M26.134 20.522h-1.067v1.067h1.067v-1.067z"></path>
            <path d="M26.134 22.656h-1.067v1.067h1.067v-1.067z"></path>
            <path d="M27.2 21.589h-1.067v1.067h1.067v-1.067z"></path>
            <path d="M25.067 21.589h-1.067v1.067h1.067v-1.067z"></path>
            <path d="M22.4 26.389h-1.067v1.067h1.067v-1.067z"></path>
            <path d="M22.4 28.522h-1.067v1.067h1.067v-1.067z"></path>
            <path d="M23.467 27.456h-1.067v1.067h1.067v-1.067z"></path>
            <path d="M21.333 27.456h-1.067v1.067h1.067v-1.067z"></path>
            <path d="M16 24.256h-1.067v1.067h1.067v-1.067z"></path>
            <path d="M16 26.389h-1.067v1.067h1.067v-1.067z"></path>
            <path d="M17.067 25.322h-1.067v1.067h1.067v-1.067z"></path>
            <path d="M14.933 25.322h-1.067v1.067h1.067v-1.067z"></path>
            <path d="M5.867 6.122h-1.067v1.067h1.067v-1.067z"></path>
            <path d="M5.867 8.255h-1.067v1.067h1.067v-1.067z"></path>
            <path d="M6.933 7.189h-1.067v1.067h1.067v-1.067z"></path>
            <path d="M4.8 7.189h-1.067v1.067h1.067v-1.067z"></path>
            <path d="M24.715 14.159c-0.287-0.388-0.709-0.637-1.188-0.705-0.481-0.068-0.956 0.058-1.34 0.352l-1.252 0.96-1.898 1.417-1.358-0.541c2.421-1.086 4.114-3.508 4.114-6.32 0-3.823-3.123-6.933-6.961-6.933s-6.961 3.11-6.961 6.933c0 1.386 0.414 2.674 1.12 3.758l-2.764-0.024c-0.002 0-0.003 0-0.005 0-0.009 0-0.015 0.004-0.023 0.005-0.053 0.002-0.105 0.013-0.155 0.031-0.013 0.005-0.026 0.008-0.038 0.013-0.006 0.003-0.013 0.003-0.019 0.006l-3.233 1.596c-0.001 0-0.001 0-0.001 0.001l-1.893 0.911c-0.021 0.009-0.042 0.021-0.063 0.035-0.755 0.502-1.012 1.489-0.598 2.295 0.22 0.429 0.595 0.745 1.056 0.889 0.178 0.055 0.359 0.083 0.539 0.083 0.29 0 0.577-0.071 0.839-0.211l1.388-0.738 2.264-1.169 1.357-0.008-5.442 5.416c-0.001 0.001-0.001 0.001-0.002 0.001l-1.339 1.333c-0.316 0.315-0.49 0.732-0.49 1.178s0.174 0.863 0.49 1.179c0.325 0.323 0.752 0.485 1.179 0.485s0.854-0.162 1.18-0.485l1.314-1.309 1.741-1.3 0.901 0.897-1.762 1.754c-0 0.001-0.001 0.001-0.002 0.001l-1.339 1.333c-0.316 0.315-0.49 0.732-0.49 1.178s0.174 0.863 0.49 1.179c0.325 0.323 0.753 0.485 1.18 0.485s0.855-0.162 1.18-0.485l3.482-3.467c0.001-0.001 0.001-0.001 0.001-0.002l1.010-1-0.004-0.004c0.006-0.006 0.015-0.009 0.022-0.015l5.166-5.658 3.471 0.494c0.025 0.004 0.050 0.005 0.075 0.005 0.065 0 0.127-0.015 0.187-0.038 0.018-0.006 0.033-0.015 0.050-0.023 0.019-0.010 0.039-0.015 0.058-0.027l3.213-2.133c0.012-0.008 0.018-0.021 0.029-0.029 0.013-0.010 0.029-0.014 0.041-0.026l1.271-1.191c0.662-0.62 0.753-1.635 0.212-2.362zM2.13 17.77c-0.173 0.093-0.37 0.111-0.558 0.052-0.187-0.058-0.338-0.186-0.427-0.358-0.161-0.314-0.068-0.695 0.214-0.902l1.314-0.632 0.449 1.312-0.992 0.528zM5.628 15.942l-1.548 0.8-0.439-1.283 2.027-1.001-0.040 1.484zM20.727 9.322c0 0.918-0.219 1.785-0.599 2.559l-4.181-1.899c-0.044-0.573-0.341-1.075-0.788-1.388l1.464-4.86c2.378 0.756 4.105 2.974 4.105 5.588zM8.938 9.322c0-3.235 2.644-5.867 5.894-5.867 0.253 0 0.5 0.021 0.745 0.052l-1.432 4.754c-0.019-0.001-0.037-0.006-0.057-0.006-1.033 0-1.873 0.837-1.873 1.867s0.84 1.867 1.873 1.867c0.694 0 1.294-0.383 1.618-0.945l3.862 1.755c-1.075 1.446-2.795 2.39-4.737 2.39-3.25 0-5.894-2.632-5.894-5.867zM14.894 10.122c0 0.441-0.362 0.8-0.806 0.8s-0.806-0.359-0.806-0.8c0-0.441 0.362-0.8 0.806-0.8s0.806 0.359 0.806 0.8zM2.465 25.146c-0.236 0.234-0.619 0.234-0.854 0.001-0.114-0.114-0.176-0.263-0.176-0.423s0.062-0.309 0.176-0.421l0.962-0.958 0.851 0.848-0.959 0.955zM5.679 28.88c-0.236 0.234-0.619 0.235-0.855 0.001-0.114-0.114-0.176-0.263-0.176-0.423s0.062-0.309 0.176-0.421l0.963-0.959 0.852 0.848-0.96 0.955zM9.16 25.411c-0.001 0-0.001 0-0.002 0.001l-1.765 1.76-0.852-0.848 1.763-1.755c0 0 0 0 0-0s0.001-0.001 0.002-0.001c0.040-0.040 0.065-0.088 0.090-0.135 0.007-0.014 0.020-0.026 0.026-0.040 0.017-0.041 0.019-0.085 0.026-0.129 0.003-0.025 0.014-0.047 0.014-0.073 0-0.036-0.013-0.070-0.020-0.106-0.006-0.032-0.006-0.065-0.019-0.095-0.020-0.050-0.055-0.094-0.091-0.138-0.010-0.012-0.014-0.027-0.025-0.038 0 0 0 0-0.001 0s-0.001-0.002-0.001-0.002l-1.607-1.6c-0.017-0.017-0.039-0.024-0.058-0.038-0.028-0.022-0.055-0.042-0.087-0.058-0.030-0.015-0.061-0.024-0.093-0.033-0.034-0.010-0.067-0.017-0.103-0.020-0.033-0.002-0.063 0.001-0.095 0.005-0.036 0.004-0.069 0.009-0.104 0.020-0.034 0.011-0.063 0.027-0.094 0.045-0.020 0.011-0.042 0.015-0.061 0.029l-1.773 1.324-0.901-0.897 2.399-2.386 4.361 4.289-0.928 0.919zM15.979 18.394c-0.015-0.002-0.030 0.004-0.045 0.003-0.039-0.002-0.076 0.001-0.115 0.007-0.030 0.005-0.059 0.011-0.088 0.021-0.034 0.012-0.065 0.028-0.097 0.047-0.030 0.018-0.057 0.037-0.083 0.061-0.013 0.011-0.028 0.017-0.040 0.029l-4.698 5.146-4.328-4.257 2.833-2.818c0.209-0.208 0.21-0.546 0.002-0.755-0.105-0.105-0.243-0.157-0.381-0.156v-0.001l-2.219 0.013 0.028-1.607 3.104 0.027c1.265 1.294 3.029 2.101 4.981 2.101 0.437 0 0.864-0.045 1.279-0.123 0.040 0.032 0.079 0.065 0.13 0.085l2.41 0.96 0.152 0.758 0.178 0.885-3.003-0.427zM20.020 18.572l-0.313-1.558 1.446-1.080 0.947 1.257-2.080 1.381zM23.774 15.741l-0.838 0.785-0.931-1.236 0.831-0.637c0.155-0.119 0.351-0.168 0.543-0.143 0.193 0.027 0.364 0.128 0.48 0.284 0.217 0.292 0.18 0.699-0.085 0.947z"></path>
            <path d="M13.602 18.544l-2.143-2.133c-0.207-0.207-0.545-0.207-0.753 0l-2.142 2.133c-0.1 0.101-0.157 0.236-0.157 0.378s0.056 0.278 0.157 0.378l2.142 2.133c0.104 0.103 0.241 0.155 0.377 0.155s0.273-0.052 0.376-0.155l2.143-2.133c0.1-0.1 0.157-0.236 0.157-0.378s-0.057-0.278-0.157-0.378zM11.083 20.303l-1.387-1.381 1.387-1.381 1.387 1.381-1.387 1.381z"></path>
            <path d="M17.164 5.071l-0.258 1.036c0.071 0.018 1.738 0.452 1.738 2.149h1.067c-0-2.017-1.666-2.965-2.547-3.185z"></path>
            <path d="M19.711 9.322h-1.067v1.067h1.067v-1.067z"></path>
        </symbol>
        <symbol id="diagrama" viewBox="0 0 32 32">
            <path d="M14.926 14.965h1.066v4.798h-1.066v-4.797z"></path>
            <path d="M19.19 17.097h1.066v2.665h-1.066v-2.665z"></path>
            <path d="M10.661 18.696h1.066v1.066h-1.066v-1.066z"></path>
            <path d="M7.463 18.163h1.066v1.599h-1.066v-1.599z"></path>
            <path d="M1.599 28.291h25.587c0.883 0 1.599-0.716 1.599-1.599v-2.132c0-0.883-0.716-1.599-1.599-1.599h-0.533v-13.293l3.028-2.868c0.703 0.346 1.553 0.136 2.013-0.499s0.396-1.508-0.152-2.068-1.42-0.644-2.065-0.198c-0.644 0.446-0.873 1.292-0.542 2.002l-2.281 2.163v-1.23c0-0.883-0.716-1.599-1.599-1.599h-21.322c-0.883 0-1.599 0.716-1.599 1.599v15.992h-0.533c-0.883 0-1.599 0.716-1.599 1.599v2.132c0 0.883 0.716 1.599 1.599 1.599zM30.384 4.837c0.294 0 0.533 0.239 0.533 0.533s-0.239 0.533-0.533 0.533c-0.294 0-0.533-0.239-0.533-0.533s0.239-0.533 0.533-0.533zM3.198 6.969c0-0.294 0.239-0.533 0.533-0.533h21.322c0.294 0 0.533 0.239 0.533 0.533v2.239l-1.066 1.013v-2.186c0-0.294-0.239-0.533-0.533-0.533h-19.19c-0.294 0-0.533 0.239-0.533 0.533v13.326c0 0.294 0.239 0.533 0.533 0.533h19.19c0.294 0 0.533-0.239 0.533-0.533v-9.674l1.066-1.010v12.284h-22.388v-15.992zM7.996 13.899c-0.721-0.002-1.354 0.478-1.546 1.174s0.105 1.433 0.725 1.801c0.62 0.368 1.41 0.276 1.928-0.226l1.853 0.93c0.215 0.108 0.476 0.057 0.636-0.123l3.939-4.431 3.872 2.901c0.208 0.156 0.498 0.139 0.686-0.039l3.365-3.188v8.131h-18.124v-12.26h18.124v2.66l-3.771 3.572-3.904-2.927c-0.222-0.166-0.534-0.135-0.718 0.072l-3.993 4.493-1.493-0.746c0.011-0.064 0.018-0.129 0.020-0.193 0-0.883-0.716-1.599-1.599-1.599zM8.529 15.498c0 0.294-0.239 0.533-0.533 0.533s-0.533-0.239-0.533-0.533c0-0.294 0.239-0.533 0.533-0.533s0.533 0.239 0.533 0.533zM11.727 24.027h5.331v0.533c0 0.294-0.239 0.533-0.533 0.533h-4.264c-0.294 0-0.533-0.239-0.533-0.533v-0.533zM1.066 24.56c0-0.294 0.239-0.533 0.533-0.533h9.062v0.533c0 0.883 0.716 1.599 1.599 1.599h4.264c0.883 0 1.599-0.716 1.599-1.599v-0.533h9.062c0.294 0 0.533 0.239 0.533 0.533v2.132c0 0.294-0.239 0.533-0.533 0.533h-25.587c-0.294 0-0.533-0.239-0.533-0.533v-2.132z"></path>
        </symbol>
        <symbol id="reloj" viewBox="0 0 32 32">
            <path d="M29.728 13.732c-0.002-7.585-6.152-13.733-13.738-13.732s-13.733 6.152-13.732 13.738c0.001 5.975 3.865 11.264 9.557 13.081 0.054 0.017 0.111 0.026 0.168 0.026 0.108-0 0.214-0.029 0.307-0.084 0.121-0.072 0.212-0.186 0.254-0.32l3.469-10.994c0.948-0.005 1.713-0.778 1.708-1.726s-0.777-1.713-1.726-1.708c-0.255 0.001-0.507 0.060-0.736 0.172l-4.582-4.583c-0.227-0.22-0.59-0.213-0.809 0.014-0.214 0.222-0.214 0.573 0 0.795l4.58 4.585c-0.351 0.717-0.151 1.583 0.481 2.072l-3.305 10.476c-6.531-2.406-9.876-9.651-7.47-16.182s9.651-9.876 16.182-7.47 9.876 9.651 7.47 16.182c-1.175 3.191-3.591 5.772-6.697 7.156l-0.357-1.682c-0.065-0.309-0.369-0.507-0.678-0.441-0.097 0.021-0.188 0.067-0.262 0.133l-3.443 3.074c-0.236 0.21-0.257 0.572-0.047 0.808 0.068 0.077 0.156 0.134 0.254 0.165l4.396 1.403c0.301 0.097 0.623-0.069 0.72-0.37 0.031-0.095 0.036-0.196 0.015-0.294l-0.351-1.65c5.083-2.143 8.384-7.128 8.372-12.644v0zM15.993 13.16c0.316 0 0.572 0.256 0.572 0.572s-0.256 0.572-0.572 0.572c-0.316 0-0.572-0.256-0.572-0.572s0.256-0.572 0.572-0.572zM17.878 26.499l1.96-1.748 0.541 2.549-2.501-0.801z"></path>
            <path d="M15.421 2.858v1.145c0 0.316 0.256 0.572 0.572 0.572s0.572-0.256 0.572-0.572v-1.145c0-0.316-0.256-0.572-0.572-0.572s-0.572 0.256-0.572 0.572z"></path>
            <path d="M5.119 13.16c-0.316 0-0.572 0.256-0.572 0.572s0.256 0.572 0.572 0.572h1.145c0.316 0 0.572-0.256 0.572-0.572s-0.256-0.572-0.572-0.572h-1.145z"></path>
            <path d="M26.866 14.304c0.316 0 0.572-0.256 0.572-0.572s-0.256-0.572-0.572-0.572h-1.145c-0.316 0-0.572 0.256-0.572 0.572s0.256 0.572 0.572 0.572h1.145z"></path>
        </symbol>
        <symbol id="antena" viewBox="0 0 32 32">
            <path d="M30.773 22.098l-8.443-8.505 0.937-4.615c0.242 0.094 0.499 0.144 0.758 0.146h0.006c1.192 0.014 2.17-0.941 2.184-2.133s-0.941-2.17-2.133-2.184c-1.192-0.014-2.17 0.941-2.184 2.133-0.003 0.255 0.039 0.509 0.125 0.749l-4.96 0.605-8.091-8.133c-0.099-0.101-0.235-0.159-0.377-0.16-0.14 0.001-0.274 0.056-0.373 0.155l-1.513 1.504c-0.208 0.208-0.208 0.546 0 0.754l0.814 0.826c-3.153 5.798-2.129 12.978 2.519 17.663 0.043 0.041 0.092 0.074 0.146 0.098-0.034 0.18-0.051 0.364-0.052 0.547v6.187h-6.4c-1.472 0.002-2.665 1.195-2.667 2.667v1.067c0 0.295 0.239 0.533 0.533 0.533h24.533c0.295 0 0.533-0.239 0.533-0.533v-1.067c-0.002-1.472-1.195-2.665-2.667-2.667h-6.4v-2.742c1.003 0.21 2.024 0.317 3.049 0.32 2.458-0.003 4.877-0.615 7.040-1.783l0.818 0.823c0.099 0.101 0.235 0.159 0.377 0.16 0.14-0.001 0.274-0.056 0.373-0.155l1.513-1.504c0.208-0.208 0.208-0.546 0-0.754zM23.28 6.233c0.418-0.415 1.093-0.414 1.508 0.004s0.414 1.093-0.004 1.508c-0.2 0.199-0.47 0.31-0.752 0.31h-0.003c-0.589-0.003-1.064-0.483-1.061-1.072 0.002-0.282 0.115-0.552 0.314-0.751h-0.002zM22.024 9.738l-0.598 2.946-1.175-1.182 1.774-1.763zM21.419 8.836l-1.92 1.909-1.485-1.493 3.405-0.415zM24.004 28.8c0.884 0 1.6 0.716 1.6 1.6v0.533h-23.467v-0.533c0-0.884 0.716-1.6 1.6-1.6h20.267zM16.537 26.667v1.067h-5.333v-1.067h5.333zM11.204 25.6v-4.053c0-1.294 1.196-2.347 2.667-2.347s2.667 1.053 2.667 2.347v4.053h-5.333zM17.604 23.904v-2.357c0-1.882-1.675-3.413-3.733-3.413-1.331-0.020-2.576 0.657-3.281 1.786-4.058-4.274-4.971-10.645-2.279-15.887l18.602 18.708c-2.872 1.461-6.165 1.873-9.309 1.163zM28.893 23.22l-21.057-21.181 0.755-0.752 7.935 7.98c0.004 0 0.006 0.007 0.010 0.010l13.115 13.191-0.757 0.752z"></path>
            <path d="M13.876 20.267h-0.005c-0.884-0.001-1.601 0.714-1.602 1.598s0.714 1.601 1.598 1.602h0.005c0.884 0.001 1.601-0.714 1.602-1.598s-0.714-1.601-1.598-1.602zM14.249 22.245c-0.1 0.1-0.236 0.156-0.378 0.155-0.295-0.002-0.532-0.242-0.531-0.536 0.001-0.141 0.057-0.276 0.157-0.375s0.233-0.154 0.373-0.155c0.295 0.002 0.532 0.241 0.53 0.536-0.001 0.141-0.057 0.276-0.157 0.375h0.005z"></path>
        </symbol>
        <symbol id="Logo-5" viewBox="0 0 32 32">
            <path d="M16.128 16.3c-0.134-0.178-0.198-0.389-0.183-0.6v-0.87c0-0.267 0.061-0.47 0.182-0.608s0.329-0.208 0.624-0.207c0.277 0 0.473 0.059 0.59 0.177 0.127 0.151 0.188 0.335 0.174 0.521v0.205h-0.495v-0.207c0.002-0.068-0.003-0.136-0.014-0.203-0.007-0.046-0.032-0.088-0.071-0.12-0.051-0.035-0.115-0.051-0.179-0.047-0.068-0.004-0.135 0.013-0.189 0.050-0.043 0.036-0.072 0.082-0.082 0.133-0.014 0.071-0.021 0.143-0.019 0.215v1.056c-0.008 0.102 0.014 0.204 0.064 0.297 0.025 0.031 0.059 0.056 0.099 0.072s0.084 0.021 0.128 0.017c0.063 0.005 0.126-0.013 0.175-0.048 0.040-0.035 0.066-0.080 0.074-0.128 0.012-0.070 0.017-0.141 0.015-0.212v-0.214h0.495v0.196c0.014 0.194-0.046 0.386-0.171 0.547-0.114 0.129-0.308 0.194-0.593 0.194s-0.5-0.069-0.623-0.212z"></path>
            <path d="M18.191 16.309c-0.125-0.135-0.188-0.333-0.188-0.594v-0.916c0-0.259 0.063-0.454 0.188-0.587s0.334-0.199 0.628-0.198c0.291 0 0.499 0.066 0.625 0.198s0.189 0.328 0.189 0.587v0.916c0 0.259-0.064 0.457-0.191 0.593s-0.334 0.205-0.623 0.205c-0.288 0-0.502-0.069-0.628-0.204zM19.049 16.090c0.045-0.085 0.065-0.178 0.059-0.271v-1.121c0.006-0.091-0.014-0.182-0.058-0.266-0.025-0.032-0.060-0.057-0.101-0.073s-0.086-0.021-0.131-0.016c-0.044-0.005-0.090 0-0.131 0.016s-0.076 0.041-0.102 0.073c-0.045 0.083-0.066 0.174-0.059 0.266v1.126c-0.006 0.093 0.014 0.186 0.059 0.271 0.029 0.029 0.064 0.051 0.104 0.067s0.083 0.024 0.127 0.024c0.044 0 0.087-0.008 0.127-0.024s0.076-0.039 0.104-0.067v-0.005z"></path>
            <path d="M20.227 14.041h0.533l0.401 1.689 0.41-1.689h0.519l0.052 2.438h-0.384l-0.041-1.695-0.396 1.695h-0.308l-0.41-1.701-0.038 1.701h-0.388l0.048-2.438z"></path>
            <path d="M22.741 14.041h0.831c0.479 0 0.718 0.231 0.718 0.692 0 0.442-0.252 0.663-0.756 0.662h-0.283v1.084h-0.513l0.003-2.438zM23.451 15.083c0.051 0.006 0.102 0.002 0.151-0.012s0.093-0.036 0.131-0.065c0.059-0.082 0.085-0.179 0.074-0.275 0.003-0.074-0.006-0.149-0.025-0.221-0.007-0.024-0.020-0.047-0.038-0.067s-0.040-0.037-0.065-0.049c-0.071-0.030-0.15-0.043-0.229-0.039h-0.199v0.729h0.199z"></path>
            <path d="M25.029 14.041h0.551l0.565 2.438h-0.478l-0.112-0.562h-0.491l-0.115 0.562h-0.485l0.565-2.438zM25.5 15.635l-0.192-1.024-0.192 1.024h0.384z"></path>
            <path d="M26.601 14.041h0.359l0.687 1.391v-1.391h0.426v2.438h-0.342l-0.691-1.452v1.452h-0.44l0.001-2.438z"></path>
            <path d="M29.070 15.55l-0.571-1.505h0.481l0.349 0.967 0.327-0.967h0.471l-0.564 1.505v0.93h-0.492v-0.93z"></path>
            <path d="M16.92 17.545v0.128h-0.418v0.991h-0.175v-0.991h-0.42v-0.128h1.014z"></path>
            <path d="M18.232 18.664h-0.135c-0.014 0.001-0.027-0.003-0.038-0.011-0.010-0.006-0.018-0.015-0.023-0.026l-0.121-0.266h-0.58l-0.121 0.266c-0.003 0.011-0.010 0.021-0.018 0.030-0.011 0.007-0.024 0.011-0.038 0.011h-0.135l0.513-1.118h0.178l0.519 1.114zM17.383 18.248h0.484l-0.205-0.455c-0.015-0.034-0.028-0.070-0.038-0.105-0.007 0.021-0.013 0.042-0.019 0.059l-0.018 0.047-0.203 0.454z"></path>
            <path d="M19.116 18.554c0.032 0.001 0.064 0.001 0.096 0 0.028-0.002 0.055-0.007 0.082-0.013 0.025-0.005 0.050-0.012 0.074-0.020 0.023-0.008 0.045-0.018 0.069-0.027v-0.251h-0.205c-0.005 0-0.010-0-0.015-0.002s-0.009-0.004-0.013-0.007c-0.003-0.003-0.006-0.006-0.008-0.009s-0.003-0.007-0.002-0.011v-0.086h0.398v0.429c-0.032 0.020-0.067 0.038-0.103 0.053s-0.075 0.028-0.114 0.038c-0.042 0.011-0.085 0.018-0.128 0.023-0.050 0.005-0.1 0.007-0.15 0.007-0.088 0.001-0.176-0.014-0.258-0.042-0.077-0.027-0.147-0.066-0.205-0.117-0.057-0.051-0.102-0.111-0.132-0.177-0.032-0.074-0.048-0.153-0.047-0.232-0.001-0.080 0.015-0.159 0.046-0.234 0.029-0.066 0.075-0.127 0.132-0.177s0.128-0.090 0.205-0.116c0.088-0.029 0.181-0.043 0.275-0.042 0.048-0 0.095 0.003 0.143 0.010 0.042 0.006 0.083 0.015 0.122 0.028 0.036 0.012 0.070 0.026 0.103 0.044s0.061 0.037 0.089 0.058l-0.049 0.069c-0.004 0.006-0.010 0.012-0.017 0.015s-0.015 0.006-0.023 0.006c-0.011-0-0.022-0.003-0.032-0.009-0.015-0.007-0.032-0.016-0.050-0.027-0.022-0.012-0.045-0.022-0.069-0.030-0.031-0.011-0.062-0.019-0.094-0.025-0.043-0.007-0.087-0.010-0.13-0.010-0.068-0.001-0.135 0.010-0.198 0.031-0.057 0.020-0.109 0.050-0.151 0.089-0.043 0.040-0.075 0.088-0.095 0.139-0.046 0.121-0.046 0.252 0 0.373 0.022 0.053 0.057 0.101 0.103 0.141 0.042 0.038 0.093 0.069 0.15 0.089 0.065 0.019 0.134 0.027 0.203 0.022z"></path>
            <path d="M20.751 18.536h0.56v0.128h-0.731v-1.118h0.175l-0.004 0.991z"></path>
            <path d="M21.893 18.663h-0.175v-1.118h0.175v1.118z"></path>
            <path d="M22.545 17.551c0.010 0.005 0.020 0.012 0.027 0.020l0.75 0.843c-0.001-0.013-0.001-0.027 0-0.040 0-0.012 0-0.025 0-0.036v-0.797h0.153v1.123h-0.088c-0.013 0.001-0.026-0.001-0.038-0.006-0.011-0.006-0.020-0.013-0.028-0.021l-0.749-0.842c0 0.013 0 0.026 0 0.038s0 0.024 0 0.035v0.797h-0.147v-1.118h0.091c0.010 0 0.020 0.002 0.029 0.005z"></path>
            <path d="M24.766 17.545v0.123h-0.622v0.369h0.504v0.119h-0.504v0.382h0.622v0.123h-0.802v-1.116h0.802z"></path>
            <path d="M6.388 10.639l7.787 1.909v6.689l-7.787-1.908v-6.69zM5.889 10.069v7.585l8.785 2.154v-7.584l-8.785-2.155z"></path>
            <path d="M10.597 23.33l-8.786-2.156v-7.584l8.786 2.155v7.585z"></path>
            <path d="M6.035 10.553l7.686 1.885-3.268 2.823-7.687-1.886 3.27-2.822zM5.889 10.069l-4.078 3.52 8.786 2.155 4.077-3.52-8.785-2.155z"></path>
            <path d="M11.092 22.903l3.582-3.093-3.582-0.879v3.973z"></path>
        </symbol>
        <symbol id="Logo-4" viewBox="0 0 32 32">
            <path d="M8.078 21.531c0.074 0.083 0.113 0.188 0.111 0.295 0.004 0.070-0.010 0.14-0.039 0.204s-0.075 0.122-0.132 0.168c-0.143 0.099-0.32 0.147-0.499 0.136h-0.877v-1.869h0.859c0.17-0.010 0.338 0.034 0.476 0.124 0.055 0.043 0.099 0.096 0.128 0.157s0.042 0.127 0.038 0.193c0.005 0.103-0.030 0.204-0.1 0.286-0.067 0.074-0.159 0.126-0.261 0.146 0.116 0.019 0.221 0.076 0.296 0.16zM7.049 21.249h0.367c0.083 0.006 0.166-0.016 0.233-0.062 0.028-0.023 0.049-0.051 0.063-0.083s0.019-0.066 0.016-0.1c0.003-0.034-0.003-0.068-0.016-0.099s-0.034-0.060-0.061-0.083c-0.069-0.047-0.154-0.069-0.24-0.063h-0.361v0.49zM7.686 21.966c0.029-0.023 0.053-0.053 0.068-0.086s0.022-0.069 0.019-0.104c0.002-0.036-0.005-0.072-0.020-0.105s-0.039-0.063-0.069-0.086c-0.072-0.049-0.16-0.073-0.249-0.068h-0.385v0.514h0.39c0.088 0.005 0.175-0.018 0.246-0.065z"></path>
            <path d="M9.833 22.335l-0.478-0.73h-0.18v0.73h-0.411v-1.869h0.778c0.196-0.013 0.39 0.044 0.542 0.159 0.109 0.101 0.174 0.235 0.185 0.377s-0.034 0.282-0.127 0.396c-0.096 0.101-0.227 0.168-0.371 0.19l0.509 0.747h-0.447zM9.176 21.35h0.336c0.233 0 0.35-0.094 0.35-0.283 0.002-0.039-0.004-0.077-0.019-0.113s-0.038-0.069-0.067-0.097c-0.074-0.056-0.169-0.083-0.264-0.076h-0.34l0.004 0.569z"></path>
            <path d="M12.079 21.959h-0.819l-0.145 0.376h-0.431l0.752-1.848h0.466l0.749 1.848h-0.431l-0.142-0.376zM11.969 21.675l-0.299-0.789-0.299 0.789h0.598z"></path>
            <path d="M14.89 22.335h-0.408l-0.914-1.271v1.271h-0.407v-1.869h0.407l0.914 1.278v-1.278h0.408v1.869z"></path>
            <path d="M17.217 21.887c-0.084 0.141-0.213 0.256-0.369 0.33-0.178 0.082-0.375 0.123-0.573 0.118h-0.726v-1.869h0.726c0.198-0.005 0.395 0.035 0.573 0.115 0.156 0.072 0.285 0.186 0.369 0.326 0.084 0.152 0.128 0.32 0.128 0.49s-0.044 0.338-0.128 0.49zM16.751 21.843c0.116-0.124 0.18-0.282 0.18-0.446s-0.064-0.322-0.18-0.446c-0.141-0.112-0.324-0.17-0.511-0.159h-0.283v1.21h0.283c0.186 0.011 0.37-0.046 0.511-0.159z"></path>
            <path d="M12.334 10.069c0 0 5.264 1.82 5.153 4.453v4.454c0 0-5.261-1.821-5.151-4.454l-0.002-4.453z"></path>
            <path d="M22.177 17.934c0.994-0.627 2.144-1.015 3.345-1.129v-1.394c-1.383 0.488-2.557 1.373-3.345 2.523z"></path>
            <path d="M21.579 18.354c0.814-1.5 2.225-2.658 3.942-3.235v-4.018c0 0-7.497 2.592-7.339 6.342v6.341c0 0 0.334-0.116 0.86-0.333 0-0.203 0-0.407 0.024-0.613 0.155-1.741 1.059-3.354 2.513-4.485z"></path>
            <path d="M20.866 20.709c0.039-0.44 0.127-0.875 0.262-1.298-0.905 0.977-1.454 2.189-1.568 3.465-0.011 0.121-0.017 0.241-0.020 0.365 0.426-0.187 0.921-0.421 1.442-0.696-0.133-0.604-0.172-1.222-0.117-1.836z"></path>
            <path d="M21.165 20.732c-0.050 0.556-0.019 1.115 0.093 1.663 2.048-1.122 4.35-2.856 4.261-4.952v-0.183c-1.463 0.15-2.833 0.736-3.897 1.667-0.249 0.577-0.403 1.185-0.457 1.804z"></path>
        </symbol>
        <symbol id="Logo-3" viewBox="0 0 32 32">
            <path d="M7.289 14.397h-0.001c-0.724 0-1.311 0.522-1.311 1.165v0.001c0 0.643 0.587 1.165 1.311 1.165h0.001c0.724 0 1.311-0.522 1.311-1.165v-0.001c0-0.643-0.587-1.165-1.311-1.165z"></path>
            <path d="M16.965 14.025c-0.002-0.894-0.402-1.75-1.113-2.382s-1.675-0.988-2.68-0.99v0c-1.006 0.002-1.97 0.357-2.681 0.989s-1.112 1.489-1.114 2.383v4.928c0 0 7.587-0.751 7.588-4.927v-0.001z"></path>
            <path d="M3.321 20.57c0.002 0.622 0.28 1.218 0.775 1.657s1.165 0.688 1.865 0.689c0.699-0.002 1.37-0.25 1.864-0.689s0.773-1.035 0.775-1.657v-3.429c0 0-5.28 0.523-5.28 3.428zM5.96 21.184c-0.137 0-0.27-0.036-0.384-0.104s-0.202-0.163-0.255-0.276c-0.052-0.112-0.066-0.236-0.039-0.355s0.093-0.229 0.189-0.315c0.097-0.086 0.22-0.144 0.354-0.168s0.273-0.012 0.399 0.035c0.126 0.047 0.234 0.125 0.31 0.226s0.117 0.22 0.117 0.341c0 0.081-0.017 0.161-0.052 0.236s-0.085 0.143-0.15 0.2c-0.064 0.057-0.141 0.103-0.225 0.134s-0.174 0.047-0.265 0.047v-0.002z"></path>
            <path d="M10.786 20.084v1.288h-0.265v-1.288h0.265zM11.299 20.634v0.207h-0.585v-0.207h0.585zM11.361 20.084v0.208h-0.647v-0.208h0.647zM12.573 20.698v0.061c0 0.098-0.013 0.186-0.040 0.264s-0.064 0.144-0.112 0.199c-0.048 0.054-0.106 0.096-0.173 0.125s-0.141 0.043-0.222 0.043c-0.081 0-0.155-0.014-0.222-0.043s-0.124-0.070-0.173-0.125c-0.049-0.055-0.087-0.121-0.114-0.199s-0.040-0.166-0.040-0.264v-0.061c0-0.098 0.013-0.186 0.040-0.264s0.064-0.144 0.112-0.199c0.049-0.055 0.107-0.097 0.173-0.126s0.141-0.043 0.222-0.043c0.081 0 0.155 0.014 0.222 0.043s0.125 0.071 0.173 0.126c0.049 0.055 0.087 0.121 0.113 0.199s0.041 0.165 0.041 0.264zM12.305 20.759v-0.063c0-0.068-0.006-0.129-0.019-0.18s-0.031-0.096-0.055-0.131c-0.024-0.035-0.054-0.062-0.088-0.080s-0.075-0.027-0.119-0.027-0.085 0.009-0.119 0.027c-0.034 0.018-0.063 0.044-0.088 0.080s-0.042 0.079-0.054 0.131-0.019 0.112-0.019 0.18v0.063c0 0.068 0.006 0.128 0.019 0.18s0.031 0.096 0.055 0.132c0.024 0.035 0.054 0.062 0.088 0.080s0.075 0.027 0.119 0.027c0.045 0 0.085-0.009 0.119-0.027s0.064-0.045 0.088-0.080c0.024-0.036 0.042-0.080 0.054-0.132s0.019-0.113 0.019-0.18zM13.434 21.035c0-0.023-0.004-0.044-0.011-0.062s-0.019-0.036-0.037-0.051c-0.018-0.016-0.044-0.032-0.077-0.047s-0.076-0.031-0.128-0.048c-0.058-0.019-0.114-0.040-0.166-0.064s-0.098-0.051-0.138-0.082c-0.040-0.032-0.071-0.069-0.094-0.111s-0.034-0.090-0.034-0.146c0-0.054 0.012-0.102 0.035-0.146s0.057-0.082 0.099-0.113c0.042-0.032 0.093-0.056 0.15-0.073s0.122-0.026 0.192-0.026c0.095 0 0.178 0.017 0.248 0.051s0.126 0.081 0.165 0.141c0.040 0.060 0.059 0.128 0.059 0.204h-0.264c0-0.038-0.008-0.071-0.024-0.099s-0.039-0.052-0.071-0.068c-0.031-0.017-0.071-0.025-0.119-0.025-0.046 0-0.084 0.007-0.115 0.021s-0.054 0.032-0.069 0.056c-0.015 0.023-0.023 0.049-0.023 0.078 0 0.022 0.005 0.042 0.016 0.059s0.028 0.034 0.050 0.049 0.049 0.030 0.080 0.043c0.032 0.014 0.069 0.027 0.111 0.040 0.070 0.021 0.132 0.045 0.185 0.072s0.098 0.056 0.134 0.089 0.063 0.070 0.081 0.112c0.018 0.042 0.027 0.089 0.027 0.142 0 0.056-0.011 0.106-0.033 0.15s-0.053 0.082-0.095 0.112c-0.041 0.031-0.091 0.054-0.148 0.070s-0.121 0.024-0.192 0.024c-0.064 0-0.127-0.008-0.188-0.025s-0.118-0.043-0.169-0.077c-0.050-0.034-0.090-0.078-0.12-0.131s-0.045-0.116-0.045-0.188h0.266c0 0.040 0.006 0.074 0.019 0.102s0.030 0.050 0.052 0.067c0.023 0.017 0.050 0.029 0.081 0.037s0.067 0.012 0.104 0.012c0.046 0 0.084-0.006 0.113-0.019s0.052-0.031 0.066-0.054c0.015-0.023 0.022-0.049 0.022-0.078zM14.456 20.084v1.288h-0.264v-1.288h0.264zM14.852 20.084v0.208h-1.051v-0.208h1.051zM15.868 21.165v0.207h-0.685v-0.207h0.685zM15.269 20.084v1.288h-0.265v-1.288h0.265zM15.778 20.608v0.202h-0.596v-0.202h0.596zM15.867 20.084v0.208h-0.685v-0.208h0.685zM16.022 20.084h0.48c0.098 0 0.183 0.015 0.254 0.044s0.126 0.073 0.165 0.131 0.057 0.129 0.057 0.213c0 0.069-0.012 0.128-0.035 0.178s-0.056 0.090-0.098 0.123c-0.042 0.032-0.091 0.058-0.148 0.078l-0.084 0.044h-0.417l-0.002-0.207h0.31c0.047 0 0.085-0.008 0.116-0.025s0.054-0.040 0.069-0.069c0.016-0.029 0.024-0.064 0.024-0.103 0-0.041-0.008-0.077-0.023-0.107s-0.039-0.053-0.070-0.069c-0.031-0.016-0.070-0.024-0.118-0.024h-0.215v1.080h-0.265v-1.288zM16.742 21.372l-0.294-0.574 0.28-0.002 0.297 0.563v0.012h-0.284zM18.135 20.913h-0.328v-0.207h0.328c0.051 0 0.092-0.008 0.124-0.025s0.055-0.041 0.070-0.071 0.022-0.064 0.022-0.102c0-0.038-0.007-0.074-0.022-0.107s-0.038-0.060-0.070-0.080c-0.032-0.020-0.073-0.030-0.124-0.030h-0.236v1.080h-0.265v-1.288h0.501c0.101 0 0.187 0.018 0.259 0.055s0.128 0.086 0.166 0.149 0.057 0.136 0.057 0.218c0 0.083-0.019 0.155-0.057 0.216s-0.094 0.108-0.166 0.141c-0.072 0.033-0.158 0.049-0.259 0.049zM19.665 21.165v0.207h-0.685v-0.207h0.685zM19.067 20.084v1.288h-0.265v-1.288h0.265zM19.576 20.608v0.202h-0.596v-0.202h0.596zM19.664 20.084v0.208h-0.685v-0.208h0.685zM20.414 20.084v1.288h-0.264v-1.288h0.264zM20.81 20.084v0.208h-1.051v-0.208h1.051zM21.825 21.165v0.207h-0.685v-0.207h0.685zM21.226 20.084v1.288h-0.265v-1.288h0.265zM21.736 20.608v0.202h-0.596v-0.202h0.596zM21.824 20.084v0.208h-0.685v-0.208h0.685zM21.98 20.084h0.48c0.098 0 0.183 0.015 0.254 0.044s0.126 0.073 0.165 0.131 0.057 0.129 0.057 0.213c0 0.069-0.012 0.128-0.035 0.178s-0.056 0.090-0.098 0.123c-0.042 0.032-0.091 0.058-0.148 0.078l-0.084 0.044h-0.417l-0.002-0.207h0.31c0.047 0 0.085-0.008 0.116-0.025s0.054-0.040 0.069-0.069c0.016-0.029 0.024-0.064 0.024-0.103 0-0.041-0.008-0.077-0.023-0.107s-0.039-0.053-0.070-0.069c-0.031-0.016-0.070-0.024-0.118-0.024h-0.215v1.080h-0.265v-1.288zM22.7 21.372l-0.294-0.574 0.28-0.002 0.297 0.563v0.012h-0.284zM23.811 21.035c0-0.023-0.004-0.044-0.011-0.062s-0.019-0.036-0.037-0.051c-0.018-0.016-0.044-0.032-0.077-0.047s-0.076-0.031-0.128-0.048c-0.058-0.019-0.114-0.040-0.166-0.064s-0.098-0.051-0.138-0.082c-0.040-0.032-0.071-0.069-0.094-0.111s-0.034-0.090-0.034-0.146c0-0.054 0.012-0.102 0.035-0.146s0.057-0.082 0.099-0.113c0.042-0.032 0.093-0.056 0.15-0.073s0.122-0.026 0.192-0.026c0.095 0 0.178 0.017 0.248 0.051s0.126 0.081 0.165 0.141c0.040 0.060 0.059 0.128 0.059 0.204h-0.264c0-0.038-0.008-0.071-0.024-0.099s-0.039-0.052-0.071-0.068c-0.031-0.017-0.071-0.025-0.119-0.025-0.046 0-0.084 0.007-0.115 0.021s-0.054 0.032-0.069 0.056c-0.015 0.023-0.023 0.049-0.023 0.078 0 0.022 0.005 0.042 0.016 0.059s0.028 0.034 0.050 0.049 0.049 0.030 0.080 0.043c0.032 0.014 0.069 0.027 0.111 0.040 0.070 0.021 0.132 0.045 0.185 0.072s0.098 0.056 0.134 0.089 0.063 0.070 0.081 0.112c0.018 0.042 0.027 0.089 0.027 0.142 0 0.056-0.011 0.106-0.033 0.15s-0.053 0.082-0.095 0.112c-0.041 0.031-0.090 0.054-0.148 0.070s-0.121 0.024-0.192 0.024c-0.064 0-0.127-0.008-0.188-0.025s-0.118-0.043-0.169-0.077c-0.050-0.034-0.090-0.078-0.12-0.131s-0.045-0.116-0.045-0.188h0.266c0 0.040 0.006 0.074 0.019 0.102s0.030 0.050 0.052 0.067c0.023 0.017 0.050 0.029 0.081 0.037s0.067 0.012 0.104 0.012c0.046 0 0.084-0.006 0.113-0.019s0.052-0.031 0.066-0.054c0.015-0.023 0.022-0.049 0.022-0.078z"></path>
        </symbol>
        <symbol id="Logo-2" viewBox="0 0 32 32">
            <path d="M10.991 22.849c0.005 0 0.010 0.001 0.014 0.003s0.008 0.004 0.012 0.007l0.066 0.063c-0.051 0.051-0.114 0.092-0.185 0.119-0.083 0.030-0.173 0.045-0.263 0.043-0.085 0.002-0.169-0.012-0.247-0.040-0.071-0.026-0.134-0.064-0.186-0.113-0.053-0.051-0.094-0.11-0.12-0.175-0.029-0.072-0.043-0.148-0.042-0.224-0.001-0.077 0.014-0.153 0.045-0.225 0.029-0.065 0.072-0.124 0.128-0.175 0.056-0.049 0.123-0.088 0.198-0.114 0.081-0.027 0.167-0.041 0.254-0.040 0.081-0.002 0.161 0.011 0.236 0.037 0.065 0.025 0.125 0.059 0.177 0.101l-0.055 0.067c-0.004 0.005-0.009 0.009-0.014 0.012-0.007 0.004-0.014 0.006-0.022 0.005s-0.017-0.003-0.024-0.007l-0.030-0.018-0.041-0.023c-0.018-0.009-0.036-0.016-0.055-0.022-0.024-0.008-0.049-0.014-0.075-0.018-0.032-0.005-0.065-0.008-0.098-0.007-0.063-0.001-0.125 0.010-0.183 0.030-0.054 0.019-0.103 0.048-0.143 0.084-0.041 0.039-0.073 0.085-0.093 0.134-0.023 0.057-0.035 0.117-0.034 0.177-0.001 0.061 0.010 0.122 0.034 0.18 0.020 0.049 0.051 0.095 0.091 0.134 0.038 0.036 0.084 0.065 0.137 0.083 0.054 0.019 0.111 0.029 0.17 0.029 0.034 0 0.067-0.001 0.1-0.006 0.054-0.006 0.106-0.022 0.152-0.048 0.023-0.013 0.045-0.028 0.065-0.044 0.008-0.007 0.020-0.011 0.031-0.011z"></path>
            <path d="M12.892 22.533c0.001 0.076-0.014 0.151-0.044 0.222-0.027 0.065-0.069 0.123-0.124 0.173s-0.121 0.088-0.195 0.113c-0.161 0.053-0.339 0.053-0.5 0-0.073-0.026-0.139-0.065-0.193-0.114-0.055-0.050-0.097-0.11-0.125-0.175-0.059-0.144-0.059-0.302 0-0.446 0.028-0.065 0.071-0.125 0.125-0.175 0.055-0.048 0.121-0.085 0.193-0.109 0.161-0.054 0.339-0.054 0.5 0 0.073 0.026 0.139 0.065 0.194 0.114s0.096 0.108 0.124 0.172c0.030 0.072 0.046 0.148 0.044 0.224zM12.719 22.533c0.001-0.061-0.009-0.121-0.031-0.179-0.018-0.049-0.048-0.095-0.088-0.134-0.039-0.037-0.086-0.066-0.139-0.084-0.117-0.039-0.247-0.039-0.364 0-0.053 0.019-0.101 0.048-0.139 0.084-0.040 0.039-0.070 0.084-0.089 0.134-0.042 0.116-0.042 0.241 0 0.358 0.019 0.049 0.049 0.095 0.089 0.134 0.039 0.037 0.086 0.065 0.139 0.084 0.117 0.038 0.246 0.038 0.364 0 0.053-0.019 0.1-0.047 0.139-0.084 0.039-0.039 0.069-0.084 0.088-0.134 0.022-0.058 0.033-0.118 0.031-0.179z"></path>
            <path d="M14.189 22.721l0.017 0.040c0.007-0.014 0.012-0.027 0.019-0.040s0.013-0.027 0.021-0.039l0.421-0.664c0.008-0.011 0.016-0.019 0.024-0.021 0.011-0.003 0.023-0.004 0.035-0.004h0.124v1.081h-0.147v-0.794c0-0.010 0-0.021 0-0.034s-0.001-0.025 0-0.037l-0.423 0.674c-0.005 0.010-0.014 0.019-0.025 0.025s-0.023 0.009-0.036 0.009h-0.024c-0.013 0-0.025-0.003-0.036-0.009s-0.019-0.015-0.025-0.025l-0.435-0.678c0 0.013 0 0.026 0 0.039s0 0.024 0 0.034v0.794h-0.142v-1.078h0.124c0.012-0.001 0.023 0.001 0.035 0.004 0.010 0.004 0.018 0.012 0.023 0.021l0.43 0.665c0.008 0.012 0.016 0.025 0.021 0.039z"></path>
            <path d="M15.772 22.667v0.405h-0.165v-1.079h0.367c0.069-0.001 0.138 0.007 0.205 0.024 0.053 0.013 0.103 0.036 0.145 0.067 0.037 0.029 0.065 0.065 0.082 0.106 0.019 0.044 0.029 0.091 0.028 0.138 0.001 0.047-0.010 0.094-0.030 0.138-0.020 0.041-0.050 0.078-0.089 0.108-0.042 0.032-0.092 0.057-0.146 0.072-0.064 0.018-0.131 0.026-0.198 0.025l-0.199-0.003zM15.772 22.551h0.199c0.043 0 0.086-0.005 0.128-0.016 0.034-0.010 0.065-0.026 0.092-0.047 0.025-0.020 0.044-0.044 0.056-0.072 0.013-0.029 0.020-0.060 0.020-0.091 0.002-0.030-0.004-0.060-0.017-0.088s-0.032-0.053-0.058-0.074c-0.063-0.043-0.142-0.063-0.221-0.058h-0.199v0.445z"></path>
            <path d="M17.984 23.073h-0.13c-0.013 0-0.026-0.003-0.036-0.010-0.009-0.007-0.017-0.015-0.021-0.025l-0.112-0.261h-0.562l-0.116 0.261c-0.004 0.010-0.011 0.018-0.021 0.024-0.010 0.007-0.024 0.011-0.037 0.011h-0.13l0.494-1.081h0.171l0.5 1.081zM17.169 22.672h0.464l-0.196-0.44c-0.015-0.033-0.027-0.067-0.037-0.102l-0.019 0.056c-0.006 0.017-0.012 0.033-0.018 0.046l-0.194 0.439z"></path>
            <path d="M18.695 21.997c0.010 0.005 0.018 0.011 0.025 0.019l0.72 0.815c0-0.013 0-0.026 0-0.038s0-0.024 0-0.036v-0.765h0.147v1.081h-0.082c-0.012 0-0.023-0.002-0.034-0.006s-0.019-0.012-0.026-0.020l-0.719-0.814c0.001 0.012 0.001 0.025 0 0.037s0 0.023 0 0.033v0.77h-0.147v-1.081h0.087c0.010-0 0.020 0.001 0.030 0.005z"></path>
            <path d="M20.801 22.643v0.429h-0.165v-0.429l-0.455-0.651h0.147c0.013-0.001 0.025 0.003 0.035 0.009 0.009 0.007 0.016 0.015 0.022 0.024l0.285 0.42c0.012 0.018 0.021 0.034 0.030 0.050s0.015 0.031 0.021 0.046l0.021-0.047c0.008-0.017 0.017-0.034 0.028-0.049l0.281-0.423c0.006-0.008 0.013-0.016 0.021-0.023 0.010-0.007 0.022-0.011 0.035-0.011h0.149l-0.456 0.654z"></path>
            <path d="M14.108 20.179c0.072 0.008 0.144 0.014 0.217 0.020 1.111-0.432 2.050-1.138 2.701-2.031s0.985-1.933 0.959-2.99l-1.224-1.063c0.249 1.125 0.132 2.288-0.336 3.359s-1.271 2.008-2.317 2.705z"></path>
            <path d="M13.671 20.13l0.033 0.006c1.118-0.695 1.971-1.665 2.447-2.786s0.555-2.339 0.226-3.499l-1.743-1.515c0.705 1.245 0.989 2.638 0.818 4.018s-0.788 2.689-1.781 3.775z"></path>
            <path d="M19.583 16.427c-0.296 1.161-1.015 2.209-2.051 2.986-0.302 0.228-0.629 0.432-0.975 0.608 0.843-0.215 1.618-0.596 2.266-1.113s1.149-1.156 1.467-1.868l-0.707-0.614z"></path>
            <path d="M19.305 16.256l-1.007-0.875c-0.019 0.997-0.346 1.972-0.945 2.822s-1.45 1.546-2.463 2.014h0.005c0.226-0 0.451-0.012 0.676-0.035 0.947-0.336 1.784-0.87 2.435-1.555s1.098-1.5 1.299-2.371z"></path>
            <path d="M13.816 11.697l-1.201-1.045c-1.074 0.36-1.997 0.994-2.649 1.818s-1.003 1.8-1.006 2.8v0c0.004 1.105 0.432 2.177 1.216 3.047s1.88 1.487 3.114 1.755c1.101-1.166 1.746-2.607 1.841-4.113s-0.366-2.999-1.315-4.262z"></path>
            <path d="M22.080 16.095c-0.004-1.311-0.606-2.567-1.673-3.494s-2.513-1.449-4.022-1.453c-0.697-0.001-1.389 0.111-2.039 0.33l7.353 6.388c0.252-0.565 0.381-1.165 0.38-1.771z"></path>
        </symbol>
        <symbol id="Logo-1" viewBox="0 0 32 32">
            <path d="M15.129 9.818h-0.041c-0.063-0.004-0.127-0.005-0.19-0.007v0h-0.137c-0.12 0-0.242 0.003-0.364 0.009-0.009-0.001-0.018-0.001-0.027 0-1.1 0.062-2.178 0.337-3.175 0.81l-0.131 0.063v6.684l0.305-0.104c0.268-0.092 0.554-0.175 0.849-0.252 0.799-0.205 1.619-0.314 2.444-0.325v0.878c-0.109 0.001-0.215 0.004-0.322 0.009h-0.025c-0.635 0.035-1.264 0.131-1.88 0.289-0.78 0.195-1.533 0.489-2.24 0.873v-8.573c0.735-0.428 1.526-0.75 2.35-0.956 0.724-0.187 1.468-0.283 2.215-0.286h0.129c0.154 0.004 0.305 0.011 0.446 0.021 0.372 0.026 0.741 0.085 1.104 0.176v0.864c-0.352-0.082-0.709-0.136-1.069-0.161-0.007-0.001-0.015-0.001-0.022-0.002-0.075-0.006-0.149-0.013-0.219-0.013zM16.65 10.701c0.192 0.015 0.39 0.021 0.591 0.021 0.785-0.003 1.567-0.103 2.328-0.299 0.78-0.196 1.532-0.49 2.239-0.874v8.42c-0.735 0.428-1.526 0.75-2.351 0.956-0.724 0.186-1.468 0.282-2.215 0.285-0.566 0.005-1.13-0.062-1.68-0.198v-8.474c0.13 0.030 0.263 0.058 0.399 0.081 0.223 0.038 0.458 0.065 0.687 0.082zM20.935 10.767l-0.305 0.103c-0.281 0.094-0.564 0.179-0.849 0.254-0.829 0.213-1.682 0.322-2.538 0.325-0.199 0-0.383-0.005-0.56-0.017l-0.244-0.016v6.876l0.209 0.018c0.194 0.017 0.394 0.025 0.596 0.025 0.674-0.003 1.346-0.090 1.999-0.259 0.538-0.135 1.061-0.323 1.562-0.561l0.131-0.063v-6.686z"></path>
            <path d="M10.789 21.675c-0.044-0.046-0.097-0.081-0.155-0.105s-0.121-0.035-0.184-0.032c-0.067-0.001-0.134 0.012-0.196 0.037-0.057 0.023-0.109 0.057-0.153 0.101s-0.077 0.096-0.098 0.154c-0.024 0.060-0.036 0.125-0.035 0.19v1.145c-0.003 0.081 0.013 0.161 0.045 0.235 0.027 0.059 0.066 0.111 0.115 0.154 0.046 0.039 0.1 0.066 0.157 0.081 0.056 0.016 0.113 0.024 0.171 0.024 0.064 0.001 0.127-0.013 0.185-0.040 0.057-0.025 0.109-0.061 0.153-0.106 0.043-0.044 0.076-0.097 0.1-0.154s0.037-0.12 0.037-0.183v-0.128h-0.299v0.102c0.001 0.035-0.005 0.070-0.018 0.102-0.010 0.024-0.025 0.046-0.044 0.064-0.019 0.015-0.040 0.026-0.063 0.033-0.020 0.007-0.041 0.010-0.063 0.011-0.027 0.003-0.054-0.001-0.079-0.012s-0.046-0.028-0.062-0.050c-0.028-0.046-0.042-0.099-0.040-0.154v-1.068c-0.002-0.059 0.011-0.118 0.037-0.171 0.016-0.024 0.038-0.043 0.063-0.056s0.055-0.017 0.083-0.013c0.026-0.001 0.051 0.004 0.075 0.016s0.043 0.028 0.059 0.049c0.034 0.044 0.051 0.098 0.050 0.154v0.099h0.296v-0.117c0.001-0.069-0.012-0.137-0.037-0.2-0.022-0.060-0.056-0.115-0.1-0.161z"></path>
            <path d="M12.567 21.662c-0.095-0.081-0.216-0.125-0.341-0.126-0.061 0-0.121 0.011-0.179 0.032s-0.112 0.053-0.158 0.094c-0.050 0.045-0.089 0.099-0.116 0.16-0.030 0.070-0.045 0.146-0.044 0.222v1.099c-0.002 0.077 0.013 0.154 0.044 0.225 0.027 0.059 0.067 0.111 0.116 0.154 0.046 0.042 0.1 0.075 0.158 0.097 0.057 0.021 0.118 0.032 0.179 0.032s0.121-0.011 0.179-0.032c0.060-0.022 0.114-0.054 0.162-0.097s0.086-0.095 0.113-0.154c0.031-0.071 0.046-0.148 0.044-0.225v-1.099c0.001-0.076-0.013-0.152-0.044-0.222-0.027-0.061-0.065-0.115-0.113-0.16zM12.427 23.143c0.002 0.029-0.002 0.059-0.012 0.086s-0.027 0.052-0.048 0.073c-0.040 0.033-0.089 0.051-0.141 0.051s-0.101-0.018-0.141-0.051c-0.021-0.020-0.037-0.045-0.048-0.073s-0.014-0.057-0.012-0.086v-1.099c-0.003-0.029 0.002-0.059 0.012-0.086s0.027-0.052 0.048-0.073c0.040-0.033 0.089-0.051 0.141-0.051s0.101 0.018 0.141 0.051c0.021 0.020 0.037 0.045 0.048 0.073s0.014 0.057 0.012 0.086v1.099z"></path>
            <path d="M14.903 23.634v-2.080h-0.288l-0.378 1.101h-0.005l-0.381-1.101h-0.285v2.080h0.297v-1.265h0.005l0.291 0.894h0.148l0.293-0.894h0.005v1.265h0.297z"></path>
            <path d="M16.591 21.7c-0.046-0.051-0.104-0.090-0.168-0.114-0.070-0.023-0.142-0.034-0.215-0.032h-0.441v2.080h0.296v-0.812h0.153c0.092 0.004 0.184-0.015 0.267-0.057 0.067-0.037 0.124-0.092 0.163-0.159 0.034-0.055 0.057-0.117 0.068-0.181 0.012-0.078 0.017-0.157 0.016-0.236 0.003-0.1-0.007-0.2-0.029-0.297-0.020-0.072-0.057-0.138-0.109-0.191zM16.438 22.334c-0.001 0.038-0.011 0.075-0.027 0.108-0.017 0.032-0.044 0.058-0.076 0.073-0.044 0.020-0.092 0.029-0.14 0.026h-0.135v-0.707h0.153c0.046-0.002 0.092 0.007 0.134 0.026 0.031 0.018 0.055 0.044 0.070 0.077 0.016 0.037 0.025 0.076 0.026 0.116 0 0.044 0 0.090 0 0.138s0.003 0.098 0 0.143h-0.003z"></path>
            <path d="M17.995 21.554h-0.243l-0.458 2.080h0.296l0.087-0.447h0.404l0.087 0.447h0.296l-0.47-2.080zM17.721 22.904l0.146-0.754h0.005l0.145 0.754h-0.296z"></path>
            <path d="M19.909 22.807h-0.005l-0.448-1.253h-0.285v2.080h0.296v-1.251h0.006l0.453 1.251h0.279v-2.080h-0.296v1.253z"></path>
            <path d="M21.72 21.554l-0.238 0.827h-0.006l-0.238-0.827h-0.314l0.407 1.201v0.879h0.296v-0.879l0.407-1.201h-0.314z"></path>
        </symbol>
        <symbol id="Logo" viewBox="0 0 32 32">
            <path d="M11.472 10.139l2.116 2.003-3.927-0.002v9.717h10.264v-3.715l2.113 2.001v-10.003h-10.566zM19.832 17.907l-5.998-5.679h5.998v5.679zM17.969 20.435h-6.685v-6.535h0.473v6.093h6.212v0.442zM12.863 23.151l-0.247 0.509-0.247-0.509h-0.207l0.36 0.678v0.395h0.187v-0.395l0.36-0.678h-0.206zM13.173 24.224l0.087-0.25h0.416l0.088 0.25h0.195l-0.406-1.073h-0.167l-0.405 1.073h0.194zM13.468 23.378l0.155 0.445h-0.311l0.156-0.445zM14.451 23.798c-0.027 0.041-0.041 0.087-0.041 0.136 0 0.090 0.032 0.164 0.095 0.22s0.149 0.084 0.255 0.084 0.198-0.029 0.274-0.086l0.060 0.072h0.208l-0.158-0.186c0.062-0.084 0.093-0.193 0.093-0.325h-0.155c0 0.072-0.015 0.138-0.045 0.197l-0.207-0.245 0.073-0.053c0.052-0.037 0.089-0.075 0.111-0.112s0.034-0.079 0.034-0.124c0-0.068-0.025-0.125-0.075-0.17s-0.114-0.069-0.192-0.069c-0.086 0-0.155 0.025-0.206 0.074s-0.077 0.115-0.077 0.199c0 0.034 0.008 0.070 0.024 0.107s0.046 0.082 0.088 0.134c-0.080 0.057-0.133 0.106-0.16 0.148zM14.936 24.035c-0.053 0.040-0.109 0.060-0.169 0.060-0.054 0-0.096-0.015-0.128-0.046s-0.048-0.071-0.048-0.121c0-0.057 0.030-0.109 0.088-0.153l0.023-0.016 0.234 0.276zM14.743 23.56c-0.051-0.062-0.076-0.114-0.076-0.156 0-0.036 0.010-0.066 0.031-0.089s0.048-0.035 0.083-0.035c0.032 0 0.059 0.010 0.080 0.030s0.032 0.044 0.032 0.072c0 0.042-0.015 0.077-0.046 0.104l-0.023 0.018-0.082 0.056zM16.49 24.143c0.074-0.064 0.116-0.154 0.127-0.268h-0.186c-0.010 0.077-0.033 0.131-0.070 0.164s-0.092 0.049-0.165 0.049c-0.080 0-0.141-0.030-0.183-0.091s-0.062-0.149-0.062-0.265v-0.095c0.001-0.114 0.023-0.201 0.066-0.26s0.106-0.089 0.187-0.089c0.070 0 0.123 0.017 0.158 0.052s0.059 0.089 0.068 0.167h0.186c-0.012-0.117-0.054-0.208-0.126-0.273s-0.168-0.097-0.286-0.097c-0.088 0-0.166 0.021-0.233 0.063s-0.118 0.101-0.154 0.178-0.054 0.166-0.054 0.268v0.1c0.001 0.099 0.020 0.185 0.055 0.26s0.085 0.132 0.15 0.173c0.065 0.040 0.141 0.060 0.226 0.060 0.122 0 0.22-0.032 0.294-0.096zM17.586 23.992c0.036-0.080 0.055-0.172 0.055-0.277v-0.060c-0-0.105-0.019-0.196-0.056-0.275s-0.089-0.14-0.157-0.181c-0.067-0.042-0.145-0.063-0.232-0.063s-0.165 0.021-0.233 0.064c-0.067 0.042-0.12 0.103-0.157 0.184s-0.055 0.172-0.055 0.277v0.060c0 0.103 0.019 0.193 0.056 0.272s0.090 0.139 0.158 0.182c0.068 0.042 0.146 0.063 0.233 0.063s0.166-0.021 0.233-0.063c0.068-0.043 0.12-0.104 0.156-0.183zM17.386 23.386c0.045 0.063 0.068 0.155 0.068 0.273v0.056c0 0.121-0.022 0.213-0.067 0.276s-0.108 0.094-0.19 0.094c-0.082 0-0.145-0.032-0.192-0.097s-0.069-0.156-0.069-0.273v-0.062c0.001-0.115 0.024-0.205 0.069-0.268s0.109-0.095 0.189-0.095c0.083 0 0.146 0.032 0.191 0.095z"></path>
        </symbol>
        <symbol id="linkedin" viewBox="0 0 32 32">
            <path d="M31.992 32v-0.001h0.008v-11.736c0-5.741-1.236-10.164-7.948-10.164-3.227 0-5.392 1.771-6.276 3.449h-0.093v-2.913h-6.364v21.364h6.627v-10.579c0-2.785 0.528-5.479 3.977-5.479 3.399 0 3.449 3.179 3.449 5.657v10.401h6.62z"></path>
            <path d="M0.528 10.636h6.635v21.364h-6.635v-21.364z"></path>
            <path d="M3.843 0c-2.121 0-3.843 1.721-3.843 3.843s1.721 3.879 3.843 3.879c2.121 0 3.843-1.757 3.843-3.879-0.001-2.121-1.723-3.843-3.843-3.843v0z"></path>
        </symbol>
        <symbol id="facebook" viewBox="0 0 32 32">
            <path d="M21.329 5.313h2.921v-5.088c-0.504-0.069-2.237-0.225-4.256-0.225-4.212 0-7.097 2.649-7.097 7.519v4.481h-4.648v5.688h4.648v14.312h5.699v-14.311h4.46l0.708-5.688h-5.169v-3.919c0.001-1.644 0.444-2.769 2.735-2.769z"></path>
        </symbol>
        <symbol id="twitter" viewBox="0 0 32 32">
            <path d="M32 6.078c-1.19 0.522-2.458 0.868-3.78 1.036 1.36-0.812 2.398-2.088 2.886-3.626-1.268 0.756-2.668 1.29-4.16 1.588-1.204-1.282-2.92-2.076-4.792-2.076-3.632 0-6.556 2.948-6.556 6.562 0 0.52 0.044 1.020 0.152 1.496-5.454-0.266-10.28-2.88-13.522-6.862-0.566 0.982-0.898 2.106-0.898 3.316 0 2.272 1.17 4.286 2.914 5.452-1.054-0.020-2.088-0.326-2.964-0.808 0 0.020 0 0.046 0 0.072 0 3.188 2.274 5.836 5.256 6.446-0.534 0.146-1.116 0.216-1.72 0.216-0.42 0-0.844-0.024-1.242-0.112 0.85 2.598 3.262 4.508 6.13 4.57-2.232 1.746-5.066 2.798-8.134 2.798-0.538 0-1.054-0.024-1.57-0.090 2.906 1.874 6.35 2.944 10.064 2.944 12.072 0 18.672-10 18.672-18.668 0-0.29-0.010-0.57-0.024-0.848 1.302-0.924 2.396-2.078 3.288-3.406z"></path>
        </symbol>
        <symbol id="instagram" viewBox="0 0 32 32">
            <path d="M31.969 9.408c-0.075-1.7-0.35-2.869-0.744-3.882-0.406-1.075-1.032-2.038-1.851-2.838-0.8-0.813-1.769-1.444-2.832-1.844-1.019-0.394-2.182-0.669-3.882-0.744-1.713-0.081-2.257-0.1-6.601-0.1s-4.888 0.019-6.595 0.094c-1.7 0.075-2.869 0.35-3.882 0.744-1.075 0.406-2.038 1.031-2.838 1.85-0.813 0.8-1.444 1.769-1.844 2.832-0.394 1.019-0.669 2.182-0.744 3.882-0.081 1.713-0.1 2.257-0.1 6.601s0.019 4.888 0.094 6.595c0.075 1.7 0.35 2.869 0.744 3.882 0.406 1.075 1.038 2.038 1.85 2.838 0.8 0.813 1.769 1.444 2.832 1.844 1.019 0.394 2.182 0.669 3.882 0.744 1.706 0.075 2.25 0.094 6.595 0.094s4.888-0.019 6.595-0.094c1.7-0.075 2.869-0.35 3.882-0.744 2.151-0.832 3.851-2.532 4.682-4.682 0.394-1.019 0.669-2.182 0.744-3.882 0.075-1.707 0.094-2.251 0.094-6.595s-0.006-4.888-0.081-6.595zM29.087 22.473c-0.069 1.563-0.331 2.407-0.55 2.969-0.538 1.394-1.644 2.5-3.038 3.038-0.563 0.219-1.413 0.481-2.969 0.55-1.688 0.075-2.194 0.094-6.464 0.094s-4.782-0.019-6.464-0.094c-1.563-0.069-2.407-0.331-2.969-0.55-0.694-0.256-1.325-0.663-1.838-1.194-0.531-0.519-0.938-1.144-1.194-1.838-0.219-0.563-0.481-1.413-0.55-2.969-0.075-1.688-0.094-2.194-0.094-6.464s0.019-4.782 0.094-6.464c0.069-1.563 0.331-2.407 0.55-2.969 0.256-0.694 0.663-1.325 1.2-1.838 0.519-0.531 1.144-0.938 1.838-1.194 0.563-0.219 1.413-0.481 2.969-0.55 1.688-0.075 2.194-0.094 6.464-0.094 4.276 0 4.782 0.019 6.464 0.094 1.563 0.069 2.407 0.331 2.969 0.55 0.694 0.256 1.325 0.662 1.838 1.194 0.531 0.519 0.938 1.144 1.194 1.838 0.219 0.563 0.481 1.413 0.55 2.969 0.075 1.688 0.094 2.194 0.094 6.464s-0.019 4.77-0.094 6.458z"></path>
            <path d="M16.059 7.783c-4.538 0-8.22 3.682-8.22 8.22s3.682 8.22 8.22 8.22c4.539 0 8.22-3.682 8.22-8.22s-3.682-8.22-8.22-8.22zM16.059 21.335c-2.944 0-5.332-2.388-5.332-5.332s2.388-5.332 5.332-5.332c2.944 0 5.332 2.388 5.332 5.332s-2.388 5.332-5.332 5.332z"></path>
            <path d="M26.524 7.458c0 1.060-0.859 1.919-1.919 1.919s-1.919-0.859-1.919-1.919c0-1.060 0.859-1.919 1.919-1.919s1.919 0.859 1.919 1.919z"></path>
        </symbol>
        <symbol id="telefono-inteligente" viewBox="0 0 32 32">
            <path d="M23 0h-14c-1.654 0-3 1.346-3 3v26c0 1.654 1.346 3 3 3h14c1.654 0 3-1.346 3-3v-26c0-1.654-1.346-3-3-3zM9 2h14c0.552 0 1 0.448 1 1v21h-16v-21c0-0.552 0.448-1 1-1zM23 30h-14c-0.552 0-1-0.448-1-1v-3h16v3c0 0.552-0.448 1-1 1z"></path>
            <path d="M10.707 27.478c0.391 0.365 0.391 0.956 0 1.321s-1.024 0.365-1.414 0c-0.391-0.365-0.391-0.956 0-1.321s1.024-0.365 1.414 0z"></path>
        </symbol>
        <symbol id="sobre" viewBox="0 0 32 32">
            <path d="M29 4h-26c-1.654 0-3 1.346-3 3v18c0 1.654 1.346 3 3 3h26c1.654 0 3-1.346 3-3v-18c0-1.654-1.346-3-3-3zM29 6c0.136 0 0.265 0.028 0.383 0.077l-13.383 11.599-13.383-11.599c0.118-0.049 0.247-0.077 0.383-0.077h26zM29 26h-26c-0.552 0-1-0.448-1-1v-16.81l13.345 11.565c0.188 0.163 0.422 0.244 0.655 0.244s0.467-0.081 0.655-0.244l13.345-11.565v16.81c0 0.552-0.448 1-1 1z"></path>
        </symbol>
    </defs>
</svg>
